<svg xmlns="http://www.w3.org/2000/svg" xmlns:xlink="http://www.w3.org/1999/xlink" width="525" zoomAndPan="magnify" viewBox="0 0 393.75 120.749998" height="161" preserveAspectRatio="xMidYMid meet" version="1.0"><defs><g/><clipPath id="e1e6500d88"><path d="M 4 26.679688 L 65 26.679688 L 65 68 L 4 68 Z M 4 26.679688 " clip-rule="nonzero"/></clipPath><clipPath id="d185e9bece"><path d="M 4 52 L 65 52 L 65 92.542969 L 4 92.542969 Z M 4 52 " clip-rule="nonzero"/></clipPath></defs><g fill="#373643" fill-opacity="1"><g transform="translate(75.05936, 86.12073)"><g><path d="M 38.984375 -47.9375 C 40.4375 -47.9375 41.542969 -47.539062 42.292969 -46.734375 C 43.046875 -45.933594 43.421875 -45.027344 43.421875 -44.023438 C 43.421875 -43.070312 43.046875 -42.195312 42.292969 -41.390625 C 41.542969 -40.589844 40.4375 -40.1875 38.984375 -40.1875 L 24.984375 -40.1875 L 25.058594 -3.988281 C 25.058594 -2.632812 24.570312 -1.628906 23.59375 -0.976562 C 22.613281 -0.324219 21.625 0 20.621094 0 C 19.566406 0 18.574219 -0.324219 17.648438 -0.976562 C 16.71875 -1.628906 16.253906 -2.632812 16.253906 -3.988281 L 16.253906 -40.1875 L 2.332031 -40.1875 C 0.878906 -40.1875 -0.1875 -40.589844 -0.867188 -41.390625 C -1.542969 -42.195312 -1.882812 -43.070312 -1.882812 -44.023438 C -1.882812 -45.027344 -1.542969 -45.933594 -0.867188 -46.734375 C -0.1875 -47.539062 0.878906 -47.9375 2.332031 -47.9375 Z M 38.984375 -47.9375 "/></g></g></g><g fill="#373643" fill-opacity="1"><g transform="translate(116.521448, 86.12073)"><g><path d="M 21.523438 -6.699219 C 22.976562 -6.699219 24.410156 -6.898438 25.8125 -7.300781 C 27.21875 -7.703125 28.523438 -8.378906 29.726562 -9.332031 C 30.878906 -10.386719 32.007812 -10.875 33.113281 -10.800781 C 34.214844 -10.722656 35.132812 -10.324219 35.859375 -9.59375 C 36.585938 -8.867188 36.949219 -7.964844 36.949219 -6.886719 C 36.949219 -5.808594 36.425781 -4.765625 35.371094 -3.761719 C 33.613281 -2.058594 31.53125 -0.867188 29.125 -0.1875 C 26.714844 0.488281 24.257812 0.804688 21.75 0.753906 C 17.835938 0.753906 14.386719 -0.0507812 11.402344 -1.65625 C 8.417969 -3.261719 6.082031 -5.492188 4.402344 -8.351562 C 2.722656 -11.214844 1.882812 -14.523438 1.882812 -18.289062 C 1.882812 -22.402344 2.683594 -26.015625 4.289062 -29.125 C 5.894531 -32.234375 8.164062 -34.667969 11.101562 -36.425781 C 14.035156 -38.179688 17.507812 -39.058594 21.523438 -39.058594 C 25.539062 -39.058594 28.949219 -38.242188 31.757812 -36.613281 C 34.566406 -34.980469 36.710938 -32.699219 38.191406 -29.765625 C 39.671875 -26.828125 40.414062 -23.40625 40.414062 -19.492188 C 40.414062 -18.238281 40.160156 -17.171875 39.660156 -16.292969 C 39.160156 -15.414062 37.828125 -14.976562 35.671875 -14.976562 L 10.609375 -14.976562 C 11.3125 -12.519531 12.644531 -10.523438 14.601562 -8.992188 C 16.554688 -7.464844 18.863281 -6.699219 21.523438 -6.699219 Z M 21.597656 -31.609375 C 18.6875 -31.609375 16.253906 -30.691406 14.296875 -28.859375 C 12.34375 -27.03125 11.085938 -24.632812 10.535156 -21.675781 L 32.4375 -21.675781 C 32.183594 -24.632812 31.207031 -27.03125 29.5 -28.859375 C 27.792969 -30.691406 25.160156 -31.609375 21.597656 -31.609375 Z M 21.597656 -31.609375 "/></g></g></g><g fill="#373643" fill-opacity="1"><g transform="translate(160.241039, 86.12073)"><g><path d="M 0.976562 -8.957031 C 0.628906 -10.359375 0.953125 -11.488281 1.957031 -12.34375 C 2.960938 -13.195312 4.0625 -13.621094 5.269531 -13.621094 C 6.171875 -13.621094 6.972656 -13.359375 7.675781 -12.832031 C 8.378906 -12.304688 8.90625 -11.515625 9.257812 -10.460938 C 9.558594 -9.558594 10.210938 -8.816406 11.214844 -8.242188 C 12.214844 -7.664062 13.382812 -7.25 14.710938 -7 C 16.042969 -6.746094 17.382812 -6.621094 18.738281 -6.621094 C 21.449219 -6.621094 23.628906 -7.113281 25.285156 -8.089844 C 26.941406 -9.070312 27.769531 -10.308594 27.769531 -11.816406 C 27.769531 -12.867188 27.332031 -13.648438 26.453125 -14.148438 C 25.574219 -14.648438 24.421875 -15 22.992188 -15.203125 C 21.5625 -15.402344 20.042969 -15.554688 18.4375 -15.652344 C 16.332031 -15.855469 14.261719 -16.105469 12.230469 -16.40625 C 10.199219 -16.707031 8.351562 -17.222656 6.699219 -17.949219 C 5.042969 -18.675781 3.710938 -19.753906 2.710938 -21.183594 C 1.707031 -22.613281 1.203125 -24.558594 1.203125 -27.015625 C 1.203125 -29.425781 1.90625 -31.53125 3.3125 -33.339844 C 4.714844 -35.144531 6.699219 -36.550781 9.257812 -37.554688 C 11.816406 -38.554688 14.777344 -39.058594 18.136719 -39.058594 C 20.09375 -39.058594 22.199219 -38.871094 24.457031 -38.492188 C 26.714844 -38.117188 28.8125 -37.351562 30.742188 -36.199219 C 32.675781 -35.042969 34.089844 -33.261719 34.996094 -30.855469 C 35.34375 -29.851562 35.320312 -28.960938 34.917969 -28.183594 C 34.519531 -27.40625 33.929688 -26.816406 33.152344 -26.414062 C 32.371094 -26.015625 31.582031 -25.8125 30.78125 -25.8125 C 29.875 -25.8125 29.136719 -25.988281 28.558594 -26.339844 C 27.984375 -26.691406 27.492188 -27.292969 27.09375 -28.144531 C 26.640625 -29.199219 25.875 -29.976562 24.796875 -30.480469 C 23.71875 -30.980469 22.566406 -31.292969 21.335938 -31.417969 C 20.105469 -31.546875 19.039062 -31.609375 18.136719 -31.609375 C 15.628906 -31.609375 13.609375 -31.179688 12.078125 -30.328125 C 10.546875 -29.476562 9.785156 -28.347656 9.785156 -26.941406 C 9.785156 -25.738281 10.183594 -24.921875 10.988281 -24.496094 C 11.789062 -24.070312 12.882812 -23.820312 14.261719 -23.742188 C 15.640625 -23.667969 17.183594 -23.53125 18.890625 -23.328125 C 20.996094 -23.078125 23.078125 -22.804688 25.136719 -22.5 C 27.191406 -22.199219 29.074219 -21.6875 30.78125 -20.960938 C 32.484375 -20.230469 33.839844 -19.152344 34.84375 -17.722656 C 35.847656 -16.292969 36.347656 -14.324219 36.347656 -11.816406 C 36.347656 -9.355469 35.609375 -7.175781 34.128906 -5.269531 C 32.648438 -3.363281 30.59375 -1.882812 27.957031 -0.828125 C 25.324219 0.226562 22.25 0.753906 18.738281 0.753906 C 17.183594 0.753906 15.492188 0.640625 13.660156 0.414062 C 11.828125 0.1875 10.046875 -0.261719 8.316406 -0.941406 C 6.585938 -1.617188 5.066406 -2.597656 3.761719 -3.875 C 2.457031 -5.15625 1.53125 -6.847656 0.976562 -8.957031 Z M 0.976562 -8.957031 "/></g></g></g><g fill="#373643" fill-opacity="1"><g transform="translate(197.639629, 86.12073)"><g><path d="M 20.695312 -7.148438 C 21.847656 -7.800781 22.890625 -8.027344 23.820312 -7.828125 C 24.746094 -7.625 25.5 -7.1875 26.078125 -6.507812 C 26.652344 -5.832031 26.941406 -5.042969 26.941406 -4.140625 C 26.941406 -3.488281 26.742188 -2.835938 26.339844 -2.183594 C 25.9375 -1.53125 25.3125 -0.976562 24.457031 -0.527344 C 23.355469 0.0742188 22.351562 0.4375 21.449219 0.5625 C 20.546875 0.691406 19.492188 0.753906 18.289062 0.753906 C 15.027344 0.753906 12.519531 0.0742188 10.761719 -1.28125 C 9.003906 -2.632812 7.800781 -4.390625 7.148438 -6.546875 C 6.496094 -8.703125 6.171875 -10.988281 6.171875 -13.394531 L 6.171875 -31.15625 L 3.3125 -31.15625 C 1.90625 -31.15625 0.867188 -31.53125 0.1875 -32.285156 C -0.488281 -33.039062 -0.828125 -33.839844 -0.828125 -34.695312 C -0.828125 -35.597656 -0.476562 -36.425781 0.226562 -37.175781 C 0.929688 -37.929688 1.957031 -38.304688 3.3125 -38.304688 L 6.171875 -38.304688 L 6.171875 -44.777344 C 6.171875 -46.082031 6.597656 -47.0625 7.449219 -47.710938 C 8.304688 -48.363281 9.28125 -48.691406 10.386719 -48.691406 C 11.4375 -48.691406 12.417969 -48.363281 13.320312 -47.710938 C 14.222656 -47.0625 14.675781 -46.082031 14.675781 -44.777344 L 14.675781 -38.304688 L 20.546875 -38.304688 C 21.847656 -38.304688 22.851562 -37.929688 23.554688 -37.175781 C 24.257812 -36.425781 24.609375 -35.597656 24.609375 -34.695312 C 24.609375 -33.789062 24.257812 -32.976562 23.554688 -32.246094 C 22.851562 -31.519531 21.847656 -31.15625 20.546875 -31.15625 L 14.675781 -31.15625 L 14.675781 -13.394531 C 14.675781 -12.292969 14.75 -11.226562 14.902344 -10.199219 C 15.050781 -9.167969 15.390625 -8.316406 15.917969 -7.636719 C 16.445312 -6.960938 17.234375 -6.621094 18.289062 -6.621094 C 18.6875 -6.621094 19.128906 -6.683594 19.605469 -6.8125 C 20.082031 -6.9375 20.445312 -7.050781 20.695312 -7.148438 Z M 20.695312 -7.148438 "/></g></g></g><g fill="#373643" fill-opacity="1"><g transform="translate(223.750725, 86.12073)"><g><path d="M 21.523438 -39.058594 C 25.539062 -39.058594 29.050781 -38.21875 32.058594 -36.539062 C 35.070312 -34.855469 37.402344 -32.511719 39.058594 -29.5 C 40.714844 -26.492188 41.542969 -22.976562 41.542969 -18.964844 C 41.492188 -15.050781 40.625 -11.613281 38.945312 -8.65625 C 37.265625 -5.695312 34.933594 -3.386719 31.945312 -1.730469 C 28.960938 -0.0742188 25.488281 0.753906 21.523438 0.753906 C 17.609375 0.753906 14.148438 -0.0742188 11.136719 -1.730469 C 8.128906 -3.386719 5.78125 -5.695312 4.101562 -8.65625 C 2.421875 -11.613281 1.554688 -15.050781 1.503906 -18.964844 C 1.503906 -22.976562 2.34375 -26.492188 4.027344 -29.5 C 5.707031 -32.511719 8.050781 -34.855469 11.0625 -36.539062 C 14.074219 -38.21875 17.558594 -39.058594 21.523438 -39.058594 Z M 21.523438 -6.773438 C 24.933594 -6.773438 27.65625 -7.902344 29.6875 -10.160156 C 31.722656 -12.417969 32.738281 -15.351562 32.738281 -18.964844 C 32.738281 -22.675781 31.722656 -25.699219 29.6875 -28.03125 C 27.65625 -30.367188 24.933594 -31.53125 21.523438 -31.53125 C 18.160156 -31.53125 15.453125 -30.367188 13.394531 -28.03125 C 11.339844 -25.699219 10.308594 -22.675781 10.308594 -18.964844 C 10.308594 -15.351562 11.339844 -12.417969 13.394531 -10.160156 C 15.453125 -7.902344 18.160156 -6.773438 21.523438 -6.773438 Z M 21.523438 -6.773438 "/></g></g></g><g fill="#373643" fill-opacity="1"><g transform="translate(265.513806, 86.12073)"><g><path d="M 48.089844 -7 C 49.09375 -5.996094 49.519531 -4.941406 49.367188 -3.839844 C 49.21875 -2.734375 48.742188 -1.820312 47.9375 -1.089844 C 47.136719 -0.363281 46.207031 0 45.152344 0 C 44.050781 0 43.070312 -0.453125 42.21875 -1.355469 L 40.488281 -3.160156 C 36.574219 -0.550781 31.859375 0.753906 26.339844 0.753906 C 21.421875 0.753906 17.109375 -0.277344 13.394531 -2.332031 C 9.683594 -4.390625 6.796875 -7.273438 4.742188 -10.988281 C 2.683594 -14.699219 1.65625 -19.015625 1.65625 -23.933594 C 1.65625 -28.898438 2.683594 -33.238281 4.742188 -36.949219 C 6.796875 -40.664062 9.683594 -43.546875 13.394531 -45.605469 C 17.109375 -47.664062 21.421875 -48.691406 26.339844 -48.691406 C 31.257812 -48.691406 35.546875 -47.664062 39.207031 -45.605469 C 42.871094 -43.546875 45.71875 -40.664062 47.75 -36.949219 C 49.78125 -33.238281 50.796875 -28.898438 50.796875 -23.933594 C 50.796875 -17.960938 49.316406 -12.917969 46.359375 -8.804688 Z M 26.339844 -6.921875 C 27.945312 -6.921875 29.464844 -7.125 30.894531 -7.527344 C 32.324219 -7.925781 33.613281 -8.480469 34.769531 -9.179688 L 31.683594 -12.417969 C 30.832031 -13.421875 30.402344 -14.375 30.402344 -15.277344 C 30.402344 -16.332031 30.804688 -17.222656 31.609375 -17.949219 C 32.410156 -18.675781 33.363281 -19.039062 34.46875 -19.039062 C 35.773438 -19.039062 36.925781 -18.5625 37.929688 -17.609375 L 40.1875 -15.277344 C 40.738281 -16.53125 41.179688 -17.886719 41.503906 -19.339844 C 41.832031 -20.796875 41.992188 -22.324219 41.992188 -23.933594 C 41.992188 -27.34375 41.339844 -30.328125 40.035156 -32.886719 C 38.730469 -35.445312 36.914062 -37.441406 34.582031 -38.871094 C 32.246094 -40.300781 29.5 -41.015625 26.339844 -41.015625 C 23.179688 -41.015625 20.40625 -40.300781 18.023438 -38.871094 C 15.640625 -37.441406 13.796875 -35.445312 12.492188 -32.886719 C 11.1875 -30.328125 10.535156 -27.34375 10.535156 -23.933594 C 10.535156 -20.570312 11.1875 -17.609375 12.492188 -15.050781 C 13.796875 -12.492188 15.640625 -10.5 18.023438 -9.070312 C 20.40625 -7.636719 23.179688 -6.921875 26.339844 -6.921875 Z M 26.339844 -6.921875 "/></g></g></g><g fill="#373643" fill-opacity="1"><g transform="translate(319.316883, 86.12073)"><g><path d="M 24.609375 -48.691406 C 25.410156 -48.691406 26.164062 -48.527344 26.867188 -48.203125 C 27.570312 -47.875 28.097656 -47.335938 28.445312 -46.582031 L 49.746094 -4.816406 C 50.398438 -3.710938 50.574219 -2.746094 50.273438 -1.917969 C 49.96875 -1.089844 49.394531 -0.4375 48.539062 0.0390625 C 47.6875 0.515625 46.785156 0.753906 45.832031 0.753906 C 45.128906 0.753906 44.414062 0.5625 43.6875 0.1875 C 42.960938 -0.1875 42.394531 -0.726562 41.992188 -1.429688 L 36.726562 -11.890625 L 12.492188 -11.890625 L 7.226562 -1.429688 C 6.875 -0.628906 6.335938 -0.0625 5.605469 0.261719 C 4.878906 0.589844 4.164062 0.753906 3.460938 0.753906 C 2.609375 0.753906 1.769531 0.515625 0.941406 0.0390625 C 0.113281 -0.4375 -0.488281 -1.089844 -0.867188 -1.917969 C -1.242188 -2.746094 -1.203125 -3.636719 -0.753906 -4.589844 L 20.695312 -46.582031 C 21.097656 -47.4375 21.609375 -48 22.238281 -48.277344 C 22.867188 -48.554688 23.65625 -48.691406 24.609375 -48.691406 Z M 24.609375 -35.972656 L 16.179688 -19.191406 L 33.039062 -19.191406 Z M 24.609375 -35.972656 "/></g></g></g><g clip-path="url(#e1e6500d88)"><path fill="#18cb96" d="M 34.902344 26.679688 L 5.890625 55.398438 C 0.289062 60.945312 10.652344 72.335938 17.171875 65.652344 L 34.902344 47.484375 L 52.335938 66.238281 C 57.644531 71.949219 68.539062 61.371094 63.03125 55.691406 Z M 34.902344 26.679688 " fill-opacity="1" fill-rule="nonzero"/></g><g clip-path="url(#d185e9bece)"><path fill="#18cb96" d="M 34.078125 92.539062 L 62.609375 64.296875 C 68.121094 58.839844 57.925781 47.636719 51.511719 54.207031 L 34.078125 72.078125 L 16.925781 53.632812 C 11.707031 48.015625 0.988281 58.417969 6.40625 64.007812 Z M 34.078125 92.539062 " fill-opacity="1" fill-rule="nonzero"/></g></svg>